<svg width="83" height="28" viewBox="0 0 83 28" fill="none" xmlns="http://www.w3.org/2000/svg">
<rect width="83" height="28" fill="#38B2AC"/>
<path d="M16.6891 8.06179L12.6037 9.62325C12.4255 9.69309 12.2726 9.81507 12.1649 9.97323C12.0572 10.1314 11.9997 10.3184 12 10.5097V14.4407L13.8775 13.3617V11.1514L17.0242 9.94409V8C16.9097 8.00025 16.7962 8.02118 16.6891 8.06179Z" fill="white"/>
<path d="M13.9108 16.8647L17.0242 15.0703V12.9028L12.2139 15.6764C12.1491 15.7143 12.0954 15.7684 12.0579 15.8334C12.0204 15.8984 12.0004 15.9721 12 16.0471V17.4993C12.0016 17.689 12.06 17.8739 12.1676 18.0302C12.2751 18.1865 12.427 18.307 12.6037 18.3762L16.6891 19.9377C16.7962 19.9783 16.9097 19.9992 17.0242 19.9995V18.0554L13.9108 16.8647Z" fill="white"/>
<path d="M21.849 12.2851C21.9104 12.2499 21.9613 12.199 21.9964 12.1376C22.0315 12.0762 22.0495 12.0065 22.0486 11.9357V10.5097C22.0489 10.3184 21.9915 10.1314 21.8838 9.97323C21.7761 9.81507 21.6231 9.69309 21.445 9.62325L17.3571 8.06179C17.2508 8.02146 17.1381 8.00053 17.0244 8V9.94409L20.1141 11.1324L17.0244 12.9125V15.08L21.849 12.2851Z" fill="white"/>
<path d="M17.3571 19.9381L21.445 18.3767C21.6216 18.3074 21.7735 18.1869 21.8811 18.0306C21.9887 17.8743 22.047 17.6894 22.0486 17.4997V13.5283L20.1711 14.6121V16.8532L17.0244 18.0558V19.9999C17.1381 19.9994 17.2508 19.9785 17.3571 19.9381Z" fill="white"/>
<path d="M37.6797 18H32.3672V17.0186L35.79 12.1113H32.46V10.8613H37.5869V11.8379L34.1689 16.75H37.6797V18ZM42.9287 18H38.8174V10.8613H42.9287V12.1016H40.3311V13.6689H42.748V14.9092H40.3311V16.75H42.9287V18ZM46.5029 10.8613C47.1507 10.8613 47.6846 10.9395 48.1045 11.0957C48.5277 11.252 48.8418 11.488 49.0469 11.8037C49.252 12.1195 49.3545 12.5182 49.3545 13C49.3545 13.3255 49.2926 13.6104 49.1689 13.8545C49.0452 14.0986 48.8825 14.3053 48.6807 14.4746C48.4788 14.6439 48.2607 14.7822 48.0264 14.8896L50.126 18H48.4463L46.7422 15.2607H45.9365V18H44.4229V10.8613H46.5029ZM46.3955 12.1016H45.9365V14.0303H46.4248C46.9261 14.0303 47.2842 13.9473 47.499 13.7812C47.7171 13.612 47.8262 13.3646 47.8262 13.0391C47.8262 12.7005 47.709 12.4596 47.4746 12.3164C47.2435 12.1732 46.8838 12.1016 46.3955 12.1016ZM57.5039 14.4209C57.5039 14.971 57.4355 15.4723 57.2988 15.9248C57.1621 16.374 56.9538 16.7614 56.6738 17.0869C56.3971 17.4124 56.0456 17.6631 55.6191 17.8389C55.1927 18.0114 54.6882 18.0977 54.1055 18.0977C53.5228 18.0977 53.0182 18.0114 52.5918 17.8389C52.1654 17.6631 51.8122 17.4124 51.5322 17.0869C51.2555 16.7614 51.0488 16.3724 50.9121 15.9199C50.7754 15.4674 50.707 14.9645 50.707 14.4111C50.707 13.6722 50.8275 13.0293 51.0684 12.4824C51.3125 11.9323 51.6868 11.5059 52.1914 11.2031C52.696 10.9004 53.3372 10.749 54.1152 10.749C54.89 10.749 55.5264 10.9004 56.0244 11.2031C56.5257 11.5059 56.8968 11.9323 57.1377 12.4824C57.3818 13.0326 57.5039 13.6787 57.5039 14.4209ZM52.2939 14.4209C52.2939 14.9189 52.3558 15.3486 52.4795 15.71C52.6064 16.068 52.8034 16.3447 53.0703 16.54C53.3372 16.7321 53.6823 16.8281 54.1055 16.8281C54.5352 16.8281 54.8835 16.7321 55.1504 16.54C55.4173 16.3447 55.611 16.068 55.7314 15.71C55.8551 15.3486 55.917 14.9189 55.917 14.4209C55.917 13.6722 55.777 13.083 55.4971 12.6533C55.2171 12.2236 54.7565 12.0088 54.1152 12.0088C53.6888 12.0088 53.3405 12.1064 53.0703 12.3018C52.8034 12.4938 52.6064 12.7705 52.4795 13.1318C52.3558 13.4899 52.2939 13.9196 52.2939 14.4209ZM61.2637 10.8613C62.1849 10.8613 62.8571 11.0599 63.2803 11.457C63.7035 11.8509 63.915 12.3945 63.915 13.0879C63.915 13.4004 63.8678 13.6999 63.7734 13.9863C63.679 14.2695 63.5244 14.5218 63.3096 14.7432C63.098 14.9645 62.8148 15.1403 62.46 15.2705C62.1051 15.3975 61.6673 15.4609 61.1465 15.4609H60.4971V18H58.9834V10.8613H61.2637ZM61.1855 12.1016H60.4971V14.2207H60.9951C61.2783 14.2207 61.5241 14.1833 61.7324 14.1084C61.9408 14.0335 62.1019 13.9163 62.2158 13.7568C62.3298 13.5973 62.3867 13.3923 62.3867 13.1416C62.3867 12.79 62.2891 12.5296 62.0938 12.3604C61.8984 12.1878 61.5957 12.1016 61.1855 12.1016ZM69.4766 16.0176C69.4766 16.4408 69.374 16.8086 69.1689 17.1211C68.9639 17.4336 68.6644 17.6745 68.2705 17.8438C67.8799 18.013 67.4046 18.0977 66.8447 18.0977C66.5973 18.0977 66.3548 18.0814 66.1172 18.0488C65.8828 18.0163 65.6566 17.9691 65.4385 17.9072C65.2236 17.8421 65.0186 17.7624 64.8232 17.668V16.2617C65.1618 16.4115 65.5133 16.5465 65.8779 16.667C66.2425 16.7874 66.6038 16.8477 66.9619 16.8477C67.2093 16.8477 67.4079 16.8151 67.5576 16.75C67.7106 16.6849 67.8213 16.5954 67.8896 16.4814C67.958 16.3675 67.9922 16.2373 67.9922 16.0908C67.9922 15.9118 67.932 15.7588 67.8115 15.6318C67.6911 15.5049 67.5251 15.3861 67.3135 15.2754C67.1051 15.1647 66.8691 15.0459 66.6055 14.9189C66.4395 14.8408 66.2588 14.7464 66.0635 14.6357C65.8682 14.5218 65.6826 14.3835 65.5068 14.2207C65.3311 14.0579 65.1862 13.861 65.0723 13.6299C64.9616 13.3955 64.9062 13.1156 64.9062 12.79C64.9062 12.3636 65.0039 11.999 65.1992 11.6963C65.3945 11.3936 65.6729 11.1624 66.0342 11.0029C66.3988 10.8402 66.8285 10.7588 67.3232 10.7588C67.6943 10.7588 68.0475 10.8027 68.3828 10.8906C68.7214 10.9753 69.0745 11.099 69.4424 11.2617L68.9541 12.4385C68.6253 12.305 68.3307 12.2025 68.0703 12.1309C67.8099 12.056 67.5446 12.0186 67.2744 12.0186C67.0856 12.0186 66.9245 12.0495 66.791 12.1113C66.6576 12.1699 66.5566 12.2546 66.4883 12.3652C66.4199 12.4727 66.3857 12.598 66.3857 12.7412C66.3857 12.9105 66.4346 13.0537 66.5322 13.1709C66.6331 13.2848 66.7829 13.3955 66.9814 13.5029C67.1833 13.6104 67.4339 13.7357 67.7334 13.8789C68.098 14.0514 68.4089 14.2321 68.666 14.4209C68.9264 14.6064 69.1266 14.8262 69.2666 15.0801C69.4066 15.3307 69.4766 15.6432 69.4766 16.0176Z" fill="white"/>
</svg>
