<svg width="110" height="28" viewBox="0 0 110 28" fill="none" xmlns="http://www.w3.org/2000/svg">
<rect width="110" height="28" fill="#38B2AC"/>
<path d="M24.4706 7.07209L19.7043 8.89379C19.4964 8.97527 19.318 9.11758 19.1924 9.30211C19.0667 9.48663 18.9997 9.70478 19 9.92803V14.5142L21.1905 13.2553V10.6767L24.8616 9.26811V7C24.728 7.00029 24.5956 7.02471 24.4706 7.07209Z" fill="white"/>
<path d="M21.2293 17.3419L24.8616 15.2485V12.7197L19.2495 15.9555C19.174 15.9998 19.1113 16.0629 19.0675 16.1388C19.0238 16.2146 19.0005 16.3005 19 16.3881V18.0822C19.0019 18.3036 19.07 18.5193 19.1955 18.7016C19.321 18.884 19.4982 19.0246 19.7043 19.1054L24.4706 20.9271C24.5956 20.9744 24.728 20.9989 24.8616 20.9992V18.7311L21.2293 17.3419Z" fill="white"/>
<path d="M30.4905 11.9993C30.5621 11.9582 30.6215 11.8988 30.6624 11.8272C30.7034 11.7555 30.7244 11.6742 30.7234 11.5917V9.92802C30.7237 9.70478 30.6567 9.48663 30.531 9.30211C30.4054 9.11758 30.227 8.97527 30.0191 8.89379L25.25 7.07209C25.126 7.02504 24.9945 7.00062 24.8618 7V9.26811L28.4664 10.6545L24.8618 12.7313V15.26L30.4905 11.9993Z" fill="white"/>
<path d="M25.25 20.9278L30.0191 19.1061C30.2252 19.0253 30.4024 18.8847 30.5279 18.7024C30.6534 18.52 30.7215 18.3043 30.7234 18.083V13.4497L28.5329 14.7141V17.3288L24.8618 18.7318V20.9999C24.9945 20.9993 25.126 20.9749 25.25 20.9278Z" fill="white"/>
<path d="M49.9336 18H43.2144V16.5015L47.1997 11.5493H43.4077V10.0024H49.7188V11.5278L45.7388 16.4531H49.9336V18ZM57.1523 18H51.3677V10.0024H57.1523V11.5493H53.4194V12.9297H56.8838V14.4766H53.4194V16.4531H57.1523V18ZM63.3721 12.4517C63.3721 12.2511 63.3309 12.0793 63.2485 11.936C63.1662 11.7928 63.0247 11.68 62.8242 11.5977C62.6846 11.5404 62.5216 11.5063 62.3354 11.4956C62.1493 11.4813 61.9326 11.4741 61.6855 11.4741H60.939V13.6279H61.5728C61.9022 13.6279 62.1779 13.6118 62.3999 13.5796C62.6219 13.5474 62.8081 13.474 62.9585 13.3594C63.1017 13.2484 63.2056 13.1266 63.27 12.9941C63.3381 12.8581 63.3721 12.6772 63.3721 12.4517ZM66.5894 18H64.0703L61.8896 15.0674H60.939V18H58.8872V10.0024H62.3462C62.8188 10.0024 63.2253 10.0293 63.5654 10.083C63.9056 10.1367 64.2243 10.2531 64.5215 10.4321C64.8223 10.6112 65.0604 10.8439 65.2358 11.1304C65.4149 11.4132 65.5044 11.7695 65.5044 12.1992C65.5044 12.79 65.3665 13.2716 65.0908 13.644C64.8187 14.0164 64.4284 14.3262 63.9199 14.5732L66.5894 18ZM75.269 14.0039C75.269 15.2786 74.9038 16.292 74.1733 17.0439C73.4429 17.7923 72.4331 18.1665 71.144 18.1665C69.8586 18.1665 68.8506 17.7923 68.1201 17.0439C67.3896 16.292 67.0244 15.2786 67.0244 14.0039C67.0244 12.7184 67.3896 11.7033 68.1201 10.9585C68.8506 10.2101 69.8586 9.83594 71.144 9.83594C72.4259 9.83594 73.4339 10.2101 74.168 10.9585C74.902 11.7033 75.269 12.7184 75.269 14.0039ZM72.5352 16.0288C72.7357 15.7853 72.8843 15.4989 72.981 15.1694C73.0776 14.8364 73.126 14.4461 73.126 13.9985C73.126 13.5187 73.0705 13.1105 72.9595 12.7739C72.8485 12.4373 72.7035 12.1652 72.5244 11.9575C72.3418 11.7427 72.1305 11.5869 71.8906 11.4902C71.6543 11.3936 71.4072 11.3452 71.1494 11.3452C70.888 11.3452 70.641 11.3918 70.4082 11.4849C70.179 11.578 69.9678 11.7319 69.7744 11.9468C69.5954 12.1473 69.4486 12.4248 69.334 12.7793C69.223 13.1302 69.1675 13.5384 69.1675 14.0039C69.1675 14.4801 69.2212 14.8866 69.3286 15.2231C69.4396 15.5562 69.5846 15.8283 69.7637 16.0396C69.9427 16.2508 70.1522 16.4066 70.3921 16.5068C70.632 16.6071 70.8844 16.6572 71.1494 16.6572C71.4144 16.6572 71.6668 16.6071 71.9067 16.5068C72.1466 16.403 72.3561 16.2437 72.5352 16.0288ZM83.4492 12.5269C83.4492 12.8849 83.3866 13.2358 83.2612 13.5796C83.1359 13.9198 82.9569 14.2062 82.7241 14.439C82.4054 14.7541 82.0492 14.9922 81.6553 15.1533C81.265 15.3145 80.778 15.395 80.1943 15.395H78.9106V18H76.8481V10.0024H80.2427C80.7511 10.0024 81.179 10.0472 81.5264 10.1367C81.8773 10.2227 82.187 10.3534 82.4556 10.5288C82.7778 10.7401 83.0231 11.0104 83.1914 11.3398C83.3633 11.6693 83.4492 12.0649 83.4492 12.5269ZM81.3169 12.5752C81.3169 12.3496 81.256 12.1562 81.1343 11.9951C81.0125 11.8304 80.8711 11.7158 80.71 11.6514C80.4951 11.5654 80.2856 11.5189 80.0815 11.5117C79.8774 11.501 79.6053 11.4956 79.2651 11.4956H78.9106V13.8911H79.5015C79.8524 13.8911 80.1406 13.8696 80.3662 13.8267C80.5954 13.7837 80.7869 13.6978 80.9409 13.5688C81.0734 13.4543 81.1683 13.3182 81.2256 13.1606C81.2865 12.9995 81.3169 12.8044 81.3169 12.5752ZM91.3179 15.4863C91.3179 16.2741 90.9831 16.915 90.3135 17.4092C89.6475 17.8997 88.7415 18.145 87.5957 18.145C86.9333 18.145 86.355 18.0877 85.8608 17.9731C85.3703 17.855 84.9102 17.7064 84.4805 17.5273V15.6099H84.7061C85.1322 15.95 85.6084 16.2114 86.1348 16.394C86.6647 16.5767 87.1732 16.668 87.6602 16.668C87.7855 16.668 87.9502 16.6572 88.1543 16.6357C88.3584 16.6143 88.5249 16.5785 88.6538 16.5283C88.8114 16.4639 88.9403 16.3833 89.0405 16.2866C89.1444 16.1899 89.1963 16.0467 89.1963 15.8569C89.1963 15.6815 89.1211 15.5311 88.9707 15.4058C88.8239 15.2769 88.6073 15.1784 88.3208 15.1104C88.02 15.0387 87.7013 14.9725 87.3647 14.9116C87.0317 14.8472 86.7184 14.7666 86.4248 14.6699C85.7516 14.4515 85.2664 14.1561 84.9692 13.7837C84.6756 13.4077 84.5288 12.9422 84.5288 12.3872C84.5288 11.6424 84.8618 11.0355 85.5278 10.5664C86.1974 10.0938 87.0568 9.85742 88.106 9.85742C88.6323 9.85742 89.1515 9.90934 89.6636 10.0132C90.1792 10.1134 90.625 10.2406 91.001 10.3945V12.2368H90.7808C90.4585 11.979 90.0628 11.7642 89.5938 11.5923C89.1283 11.4168 88.652 11.3291 88.165 11.3291C87.9932 11.3291 87.8213 11.3416 87.6494 11.3667C87.4811 11.3882 87.3182 11.4312 87.1606 11.4956C87.021 11.5493 86.901 11.6317 86.8008 11.7427C86.7005 11.8501 86.6504 11.9736 86.6504 12.1133C86.6504 12.3245 86.731 12.4875 86.8921 12.6021C87.0532 12.7131 87.3576 12.8151 87.8052 12.9082C88.0988 12.9691 88.3799 13.0282 88.6484 13.0854C88.9206 13.1427 89.2124 13.2215 89.5239 13.3218C90.1362 13.5223 90.5874 13.7962 90.8774 14.1436C91.1711 14.4873 91.3179 14.9349 91.3179 15.4863Z" fill="white"/>
</svg>
