<svg width="92" height="28" viewBox="0 0 92 28" fill="none" xmlns="http://www.w3.org/2000/svg">
<rect width="92" height="28" fill="#38B2AC"/>
<path d="M17.6891 8.06179L13.6037 9.62325C13.4255 9.69309 13.2726 9.81507 13.1649 9.97323C13.0572 10.1314 12.9997 10.3184 13 10.5097V14.4407L14.8775 13.3617V11.1514L18.0242 9.94409V8C17.9097 8.00025 17.7962 8.02118 17.6891 8.06179Z" fill="white"/>
<path d="M14.9108 16.8647L18.0242 15.0703V12.9028L13.2139 15.6764C13.1491 15.7143 13.0954 15.7684 13.0579 15.8334C13.0204 15.8984 13.0004 15.9721 13 16.0471V17.4993C13.0016 17.689 13.06 17.8739 13.1676 18.0302C13.2751 18.1865 13.427 18.307 13.6037 18.3762L17.6891 19.9377C17.7962 19.9783 17.9097 19.9992 18.0242 19.9995V18.0554L14.9108 16.8647Z" fill="white"/>
<path d="M22.849 12.2851C22.9104 12.2499 22.9613 12.199 22.9964 12.1376C23.0315 12.0762 23.0495 12.0065 23.0486 11.9357V10.5097C23.0489 10.3184 22.9915 10.1314 22.8838 9.97323C22.7761 9.81507 22.6231 9.69309 22.445 9.62325L18.3571 8.06179C18.2508 8.02146 18.1381 8.00053 18.0244 8V9.94409L21.1141 11.1324L18.0244 12.9125V15.08L22.849 12.2851Z" fill="white"/>
<path d="M18.3571 19.9381L22.445 18.3767C22.6216 18.3074 22.7735 18.1869 22.8811 18.0306C22.9887 17.8743 23.047 17.6894 23.0486 17.4997V13.5283L21.1711 14.6121V16.8532L18.0244 18.0558V19.9999C18.1381 19.9994 18.2508 19.9785 18.3571 19.9381Z" fill="white"/>
<path d="M39.8306 18H33.7222V16.6377L37.3452 12.1357H33.8979V10.7295H39.6353V12.1162L36.0171 16.5938H39.8306V18ZM46.3931 18H41.1343V10.7295H46.3931V12.1357H42.9995V13.3906H46.1489V14.7969H42.9995V16.5938H46.3931V18ZM52.0474 12.9561C52.0474 12.7738 52.0099 12.6175 51.9351 12.4873C51.8602 12.3571 51.7316 12.2546 51.5493 12.1797C51.4224 12.1276 51.2743 12.0967 51.105 12.0869C50.9357 12.0739 50.7388 12.0674 50.5142 12.0674H49.8354V14.0254H50.4116C50.7111 14.0254 50.9618 14.0107 51.1636 13.9814C51.3654 13.9521 51.5347 13.8854 51.6714 13.7812C51.8016 13.6803 51.896 13.5697 51.9546 13.4492C52.0164 13.3255 52.0474 13.1611 52.0474 12.9561ZM54.9722 18H52.6821L50.6997 15.334H49.8354V18H47.9702V10.7295H51.1147C51.5444 10.7295 51.9139 10.7539 52.2231 10.8027C52.5324 10.8516 52.8221 10.9574 53.0923 11.1201C53.3657 11.2829 53.5822 11.4945 53.7417 11.7549C53.9045 12.012 53.9858 12.3359 53.9858 12.7266C53.9858 13.2637 53.8605 13.7015 53.6099 14.04C53.3625 14.3786 53.0076 14.6602 52.5454 14.8848L54.9722 18ZM62.8628 14.3672C62.8628 15.526 62.5308 16.4473 61.8667 17.1309C61.2026 17.8112 60.2847 18.1514 59.1128 18.1514C57.9442 18.1514 57.0278 17.8112 56.3638 17.1309C55.6997 16.4473 55.3677 15.526 55.3677 14.3672C55.3677 13.1986 55.6997 12.2757 56.3638 11.5986C57.0278 10.9183 57.9442 10.5781 59.1128 10.5781C60.2782 10.5781 61.1945 10.9183 61.8618 11.5986C62.5291 12.2757 62.8628 13.1986 62.8628 14.3672ZM60.3774 16.208C60.5597 15.9867 60.6948 15.7262 60.7827 15.4268C60.8706 15.124 60.9146 14.7692 60.9146 14.3623C60.9146 13.9261 60.8641 13.555 60.7632 13.249C60.6623 12.943 60.5304 12.6956 60.3677 12.5068C60.2017 12.3115 60.0096 12.1699 59.7915 12.082C59.5767 11.9941 59.3521 11.9502 59.1177 11.9502C58.88 11.9502 58.6554 11.9925 58.4438 12.0771C58.2355 12.1618 58.0435 12.3018 57.8677 12.4971C57.7049 12.6794 57.5715 12.9316 57.4673 13.2539C57.3664 13.5729 57.3159 13.944 57.3159 14.3672C57.3159 14.8001 57.3647 15.1696 57.4624 15.4756C57.5633 15.7783 57.6951 16.0257 57.8579 16.2178C58.0207 16.4098 58.2111 16.5514 58.4292 16.6426C58.6473 16.7337 58.8768 16.7793 59.1177 16.7793C59.3586 16.7793 59.5881 16.7337 59.8062 16.6426C60.0243 16.5482 60.2147 16.4033 60.3774 16.208ZM70.2993 13.0244C70.2993 13.3499 70.2424 13.6689 70.1284 13.9814C70.0145 14.2907 69.8517 14.5511 69.6401 14.7627C69.3504 15.0492 69.0265 15.2656 68.6685 15.4121C68.3136 15.5586 67.8709 15.6318 67.3403 15.6318H66.1733V18H64.2983V10.7295H67.3843C67.8465 10.7295 68.2355 10.7702 68.5513 10.8516C68.8703 10.9297 69.1519 11.0485 69.396 11.208C69.689 11.4001 69.9119 11.6458 70.0649 11.9453C70.2212 12.2448 70.2993 12.6045 70.2993 13.0244ZM68.3608 13.0684C68.3608 12.8633 68.3055 12.6875 68.1948 12.541C68.0841 12.3913 67.9556 12.2871 67.8091 12.2285C67.6138 12.1504 67.4233 12.1081 67.2378 12.1016C67.0522 12.0918 66.8049 12.0869 66.4956 12.0869H66.1733V14.2646H66.7104C67.0295 14.2646 67.2915 14.2451 67.4966 14.2061C67.7049 14.167 67.8791 14.0889 68.019 13.9717C68.1395 13.8675 68.2257 13.7438 68.2778 13.6006C68.3332 13.4541 68.3608 13.2767 68.3608 13.0684ZM77.4526 15.7148C77.4526 16.431 77.1483 17.0137 76.5396 17.4629C75.9341 17.9089 75.1105 18.1318 74.0688 18.1318C73.4666 18.1318 72.9409 18.0798 72.4917 17.9756C72.0457 17.8682 71.6274 17.7331 71.2368 17.5703V15.8271H71.4419C71.8293 16.1364 72.2622 16.374 72.7407 16.54C73.2225 16.7061 73.6847 16.7891 74.1274 16.7891C74.2414 16.7891 74.3911 16.7793 74.5767 16.7598C74.7622 16.7402 74.9136 16.7077 75.0308 16.6621C75.174 16.6035 75.2912 16.5303 75.3823 16.4424C75.4767 16.3545 75.5239 16.2243 75.5239 16.0518C75.5239 15.8923 75.4556 15.7555 75.3188 15.6416C75.1854 15.5244 74.9884 15.4349 74.728 15.373C74.4546 15.3079 74.1649 15.2477 73.8589 15.1924C73.5562 15.1338 73.2713 15.0605 73.0044 14.9727C72.3924 14.7741 71.9513 14.5055 71.6812 14.167C71.4142 13.8252 71.2808 13.402 71.2808 12.8975C71.2808 12.2204 71.5835 11.6686 72.189 11.2422C72.7977 10.8125 73.5789 10.5977 74.5327 10.5977C75.0112 10.5977 75.4832 10.6449 75.9487 10.7393C76.4175 10.8304 76.8228 10.946 77.1646 11.0859V12.7607H76.9644C76.6714 12.5264 76.3117 12.3311 75.8853 12.1748C75.4621 12.0153 75.0291 11.9355 74.5864 11.9355C74.4302 11.9355 74.2739 11.9469 74.1177 11.9697C73.9647 11.9893 73.8166 12.0283 73.6733 12.0869C73.5464 12.1357 73.4373 12.2106 73.3462 12.3115C73.255 12.4092 73.2095 12.5215 73.2095 12.6484C73.2095 12.8405 73.2827 12.9886 73.4292 13.0928C73.5757 13.1937 73.8524 13.2865 74.2593 13.3711C74.5262 13.4264 74.7817 13.4801 75.0259 13.5322C75.2733 13.5843 75.5386 13.6559 75.8218 13.7471C76.3784 13.9294 76.7886 14.1784 77.0522 14.4941C77.3192 14.8066 77.4526 15.2135 77.4526 15.7148Z" fill="white"/>
</svg>
