<svg width="100" height="28" viewBox="0 0 100 28" fill="none" xmlns="http://www.w3.org/2000/svg">
<rect width="100" height="28" fill="#38B2AC"/>
<path d="M14.4706 7.07209L9.70428 8.89379C9.49644 8.97527 9.31802 9.11758 9.19237 9.30211C9.06671 9.48663 8.99967 9.70478 9 9.92803V14.5142L11.1905 13.2553V10.6767L14.8616 9.26811V7C14.728 7.00029 14.5956 7.02471 14.4706 7.07209Z" fill="white"/>
<path d="M11.2293 17.3419L14.8616 15.2485V12.7197L9.24955 15.9555C9.174 15.9998 9.11127 16.0629 9.06752 16.1388C9.02377 16.2146 9.0005 16.3005 9 16.3881V18.0822C9.00189 18.3036 9.06997 18.5193 9.19548 18.7016C9.32099 18.884 9.49819 19.0246 9.70428 19.1054L14.4706 20.9271C14.5956 20.9744 14.728 20.9989 14.8616 20.9992V18.7311L11.2293 17.3419Z" fill="white"/>
<path d="M20.4905 11.9993C20.5621 11.9582 20.6215 11.8988 20.6624 11.8272C20.7034 11.7555 20.7244 11.6742 20.7234 11.5917V9.92802C20.7237 9.70478 20.6567 9.48663 20.531 9.30211C20.4054 9.11758 20.227 8.97527 20.0191 8.89379L15.25 7.07209C15.126 7.02504 14.9945 7.00062 14.8618 7V9.26811L18.4664 10.6545L14.8618 12.7313V15.26L20.4905 11.9993Z" fill="white"/>
<path d="M15.25 20.9278L20.0191 19.1061C20.2252 19.0253 20.4024 18.8847 20.5279 18.7024C20.6534 18.52 20.7215 18.3043 20.7234 18.083V13.4497L18.5329 14.7141V17.3288L14.8618 18.7318V20.9999C14.9945 20.9993 15.126 20.9749 15.25 20.9278Z" fill="white"/>
<path d="M38.2183 19H29.6665V17.0928L34.7388 10.79H29.9126V8.82129H37.9448V10.7627L32.8794 17.0312H38.2183V19ZM47.4058 19H40.0435V8.82129H47.4058V10.79H42.6548V12.5469H47.064V14.5156H42.6548V17.0312H47.4058V19ZM55.3218 11.9385C55.3218 11.6833 55.2694 11.4645 55.1646 11.2822C55.0597 11.0999 54.8797 10.9564 54.6245 10.8516C54.4468 10.7786 54.2394 10.7354 54.0024 10.7217C53.7655 10.7035 53.4897 10.6943 53.1753 10.6943H52.2251V13.4355H53.0317C53.451 13.4355 53.8019 13.415 54.0845 13.374C54.367 13.333 54.604 13.2396 54.7954 13.0938C54.9777 12.9525 55.1099 12.7975 55.1919 12.6289C55.2785 12.4557 55.3218 12.2256 55.3218 11.9385ZM59.4165 19H56.2104L53.4351 15.2676H52.2251V19H49.6138V8.82129H54.0161C54.6177 8.82129 55.1349 8.85547 55.5679 8.92383C56.0008 8.99219 56.4064 9.1403 56.7847 9.36816C57.1675 9.59603 57.4705 9.89225 57.6938 10.2568C57.9217 10.6169 58.0356 11.0703 58.0356 11.6172C58.0356 12.3691 57.8602 12.9821 57.5093 13.4561C57.1629 13.93 56.6662 14.3242 56.019 14.6387L59.4165 19ZM70.4634 13.9141C70.4634 15.5365 69.9985 16.8262 69.0688 17.7832C68.1392 18.7357 66.854 19.2119 65.2134 19.2119C63.5773 19.2119 62.2944 18.7357 61.3647 17.7832C60.4351 16.8262 59.9702 15.5365 59.9702 13.9141C59.9702 12.278 60.4351 10.986 61.3647 10.0381C62.2944 9.08561 63.5773 8.60938 65.2134 8.60938C66.8449 8.60938 68.1278 9.08561 69.062 10.0381C69.9963 10.986 70.4634 12.278 70.4634 13.9141ZM66.9839 16.4912C67.2391 16.1813 67.4282 15.8167 67.5513 15.3975C67.6743 14.9736 67.7358 14.4769 67.7358 13.9072C67.7358 13.2965 67.6652 12.777 67.5239 12.3486C67.3826 11.9202 67.1981 11.5739 66.9702 11.3096C66.7378 11.0361 66.4689 10.8379 66.1636 10.7148C65.8628 10.5918 65.5483 10.5303 65.2202 10.5303C64.8875 10.5303 64.5731 10.5895 64.2769 10.708C63.9852 10.8265 63.7163 11.0225 63.4702 11.2959C63.2424 11.5511 63.0555 11.9043 62.9097 12.3555C62.7684 12.8021 62.6978 13.3216 62.6978 13.9141C62.6978 14.5202 62.7661 15.0374 62.9028 15.4658C63.0441 15.8896 63.2287 16.236 63.4565 16.5049C63.6844 16.7738 63.951 16.972 64.2563 17.0996C64.5617 17.2272 64.883 17.291 65.2202 17.291C65.5575 17.291 65.8787 17.2272 66.1841 17.0996C66.4894 16.9674 66.756 16.7646 66.9839 16.4912ZM80.8745 12.0342C80.8745 12.4899 80.7948 12.9365 80.6353 13.374C80.4757 13.807 80.2479 14.1715 79.9517 14.4678C79.5461 14.8688 79.0926 15.1719 78.5913 15.377C78.0946 15.582 77.4748 15.6846 76.7319 15.6846H75.0981V19H72.4731V8.82129H76.7935C77.4406 8.82129 77.9852 8.87826 78.4272 8.99219C78.8739 9.10156 79.2681 9.2679 79.6099 9.49121C80.02 9.76009 80.3322 10.1042 80.5464 10.5234C80.7651 10.9427 80.8745 11.4463 80.8745 12.0342ZM78.1606 12.0957C78.1606 11.8086 78.0832 11.5625 77.9282 11.3574C77.7733 11.1478 77.5933 11.002 77.3882 10.9199C77.1147 10.8105 76.8481 10.7513 76.5884 10.7422C76.3286 10.7285 75.9823 10.7217 75.5493 10.7217H75.0981V13.7705H75.8501C76.2967 13.7705 76.6636 13.7432 76.9507 13.6885C77.2424 13.6338 77.4862 13.5244 77.6821 13.3604C77.8507 13.2145 77.9715 13.0413 78.0444 12.8408C78.1219 12.6357 78.1606 12.3874 78.1606 12.0957ZM90.8892 15.8008C90.8892 16.8034 90.4631 17.6191 89.6108 18.248C88.7632 18.8724 87.6102 19.1846 86.1519 19.1846C85.3088 19.1846 84.5728 19.1117 83.9438 18.9658C83.3195 18.8154 82.7339 18.6263 82.187 18.3984V15.958H82.4741C83.0164 16.391 83.6226 16.7236 84.2925 16.9561C84.967 17.1885 85.6141 17.3047 86.2339 17.3047C86.3934 17.3047 86.603 17.291 86.8628 17.2637C87.1226 17.2363 87.3345 17.1908 87.4985 17.127C87.6991 17.0449 87.8631 16.9424 87.9907 16.8193C88.1229 16.6963 88.189 16.514 88.189 16.2725C88.189 16.0492 88.0933 15.8577 87.9019 15.6982C87.715 15.5342 87.4393 15.4089 87.0747 15.3223C86.6919 15.2311 86.2863 15.1468 85.8579 15.0693C85.4341 14.9873 85.0353 14.8848 84.6616 14.7617C83.8049 14.4837 83.1873 14.1077 82.8091 13.6338C82.4354 13.1553 82.2485 12.5628 82.2485 11.8564C82.2485 10.9085 82.6724 10.1361 83.52 9.53906C84.3722 8.9375 85.466 8.63672 86.8013 8.63672C87.4712 8.63672 88.132 8.7028 88.7837 8.83496C89.4399 8.96257 90.0073 9.12435 90.4858 9.32031V11.665H90.2056C89.7954 11.3369 89.2918 11.0635 88.6948 10.8447C88.1024 10.6214 87.4963 10.5098 86.8765 10.5098C86.6577 10.5098 86.439 10.5257 86.2202 10.5576C86.006 10.585 85.7987 10.6396 85.5981 10.7217C85.4204 10.79 85.2677 10.8949 85.1401 11.0361C85.0125 11.1729 84.9487 11.3301 84.9487 11.5078C84.9487 11.7767 85.0513 11.984 85.2563 12.1299C85.4614 12.2712 85.8488 12.401 86.4185 12.5195C86.7922 12.597 87.1499 12.6722 87.4917 12.7451C87.8381 12.818 88.2095 12.9183 88.606 13.0459C89.3853 13.3011 89.9595 13.6497 90.3286 14.0918C90.7023 14.5293 90.8892 15.099 90.8892 15.8008Z" fill="white"/>
</svg>
